<svg width="34" height="34" viewBox="0 0 34 34" fill="none" xmlns="http://www.w3.org/2000/svg">
<rect width="33.9992" height="33.9992" rx="6.18168" fill="white"/>
<path d="M13.7541 9.27246H20.2449C22.7175 9.27246 24.7266 11.2815 24.7266 13.7542V20.2449C24.7266 21.4336 24.2544 22.5735 23.4139 23.414C22.5734 24.2545 21.4335 24.7267 20.2449 24.7267H13.7541C11.2814 24.7267 9.2724 22.7176 9.2724 20.2449V13.7542C9.2724 12.5656 9.74458 11.4256 10.5851 10.5851C11.4255 9.74464 12.5655 9.27246 13.7541 9.27246ZM13.5996 10.8179C12.8618 10.8179 12.1543 11.111 11.6326 11.6326C11.1109 12.1543 10.8178 12.8619 10.8178 13.5996V20.3995C10.8178 21.9372 12.0619 23.1812 13.5996 23.1812H20.3994C21.1372 23.1812 21.8447 22.8882 22.3664 22.3665C22.8881 21.8448 23.1812 21.1372 23.1812 20.3995V13.5996C23.1812 12.0619 21.9371 10.8179 20.3994 10.8179H13.5996ZM21.0562 11.9769C21.3124 11.9769 21.5581 12.0787 21.7392 12.2598C21.9203 12.441 22.0221 12.6867 22.0221 12.9428C22.0221 13.199 21.9203 13.4447 21.7392 13.6258C21.5581 13.807 21.3124 13.9087 21.0562 13.9087C20.8001 13.9087 20.5544 13.807 20.3732 13.6258C20.1921 13.4447 20.0903 13.199 20.0903 12.9428C20.0903 12.6867 20.1921 12.441 20.3732 12.2598C20.5544 12.0787 20.8001 11.9769 21.0562 11.9769ZM16.9995 13.136C18.0242 13.136 19.0069 13.5431 19.7314 14.2676C20.456 14.9922 20.863 15.9749 20.863 16.9996C20.863 18.0242 20.456 19.0069 19.7314 19.7315C19.0069 20.4561 18.0242 20.8631 16.9995 20.8631C15.9748 20.8631 14.9921 20.4561 14.2676 19.7315C13.543 19.0069 13.1359 18.0242 13.1359 16.9996C13.1359 15.9749 13.543 14.9922 14.2676 14.2676C14.9921 13.5431 15.9748 13.136 16.9995 13.136ZM16.9995 14.6814C16.3847 14.6814 15.7951 14.9257 15.3603 15.3604C14.9256 15.7951 14.6814 16.3848 14.6814 16.9996C14.6814 17.6144 14.9256 18.204 15.3603 18.6387C15.7951 19.0735 16.3847 19.3177 16.9995 19.3177C17.6143 19.3177 18.2039 19.0735 18.6387 18.6387C19.0734 18.204 19.3176 17.6144 19.3176 16.9996C19.3176 16.3848 19.0734 15.7951 18.6387 15.3604C18.2039 14.9257 17.6143 14.6814 16.9995 14.6814Z" fill="black"/>
</svg>
