<svg width="1280" height="716" viewBox="0 0 1280 716" fill="none" xmlns="http://www.w3.org/2000/svg">
<path d="M0 713.389C1.45629 714.256 2.93618 715.127 4.44141 716H0V713.389ZM0 -1.54199C8.59562 3.43118 18.0046 8.53879 28.4355 14.1455L28.4365 14.1445C97.3153 52.1427 193.933 67.1438 333.249 67.0488C472.668 66.9537 655.497 51.7264 897.233 28.8047C1001.24 18.9428 1095.28 8.14807 1172.25 6.96777C1210.72 6.37797 1244.73 8.19543 1273.46 13.6777C1275.67 14.1004 1277.85 14.5474 1280 15.0137V671.006C1255.66 664.183 1229.83 659.8 1202.09 657.26C1123.72 650.083 1029.87 657.608 911.219 666.24L911.145 666.246L911.072 666.255C704.2 690.261 534.554 707.275 395.143 711.111C255.82 714.945 147.045 705.601 61.6553 677.125C35.8022 664.553 14.9298 651.5 0 638.88V-1.54199Z" fill="#457E7F"/>
</svg>
