<svg width="34" height="34" viewBox="0 0 34 34" fill="none" xmlns="http://www.w3.org/2000/svg">
<rect width="33.9992" height="33.9992" rx="6.18168" fill="white"/>
<path d="M25.0822 11.9768C24.4872 12.2473 23.8459 12.425 23.1813 12.51C23.8613 12.1004 24.3868 11.4514 24.634 10.6709C23.9927 11.0573 23.2818 11.3277 22.5323 11.4823C21.9218 10.8178 21.0641 10.4314 20.0905 10.4314C18.2746 10.4314 16.791 11.915 16.791 13.7463C16.791 14.009 16.8219 14.264 16.876 14.5036C14.1252 14.3645 11.6757 13.0432 10.0453 11.0418C9.75937 11.5286 9.5971 12.1004 9.5971 12.7032C9.5971 13.8545 10.1766 14.8745 11.073 15.454C10.5244 15.454 10.0144 15.2995 9.56619 15.0677V15.0908C9.56619 16.6981 10.7098 18.0426 12.2243 18.3439C11.7382 18.4776 11.2275 18.4961 10.733 18.398C10.9429 19.0568 11.3539 19.6331 11.9083 20.0462C12.4627 20.4592 13.1326 20.6881 13.8238 20.7007C12.6521 21.6284 11.1997 22.1298 9.70528 22.1225C9.44256 22.1225 9.17984 22.107 8.91711 22.0761C10.3853 23.0188 12.1316 23.5675 14.0015 23.5675C20.0905 23.5675 23.4363 18.5139 23.4363 14.1327C23.4363 13.9859 23.4363 13.8468 23.4286 13.7C24.0777 13.2363 24.634 12.6491 25.0822 11.9768Z" fill="black"/>
</svg>
