<svg width="34" height="34" viewBox="0 0 34 34" fill="none" xmlns="http://www.w3.org/2000/svg">
<rect width="33.9992" height="33.9992" rx="6.18168" fill="white"/>
<path d="M15.4541 19.3177L19.4644 16.9995L15.4541 14.6814V19.3177ZM24.3866 13.2674C24.4871 13.6305 24.5566 14.1173 24.603 14.7355C24.6571 15.3537 24.6802 15.8868 24.6802 16.3505L24.7266 16.9995C24.7266 18.6918 24.603 19.9358 24.3866 20.7317C24.1934 21.4272 23.7453 21.8753 23.0498 22.0685C22.6866 22.169 22.0221 22.2385 21.0021 22.2849C19.9976 22.339 19.0781 22.3622 18.2281 22.3622L16.9995 22.4085C13.7618 22.4085 11.7451 22.2849 10.9492 22.0685C10.2537 21.8753 9.80557 21.4272 9.61239 20.7317C9.51194 20.3686 9.4424 19.8818 9.39603 19.2636C9.34194 18.6454 9.31876 18.1122 9.31876 17.6486L9.2724 16.9995C9.2724 15.3073 9.39603 14.0632 9.61239 13.2674C9.80557 12.5719 10.2537 12.1237 10.9492 11.9306C11.3124 11.8301 11.9769 11.7606 12.9969 11.7142C14.0014 11.6601 14.9209 11.6369 15.7709 11.6369L16.9995 11.5906C20.2372 11.5906 22.2539 11.7142 23.0498 11.9306C23.7453 12.1237 24.1934 12.5719 24.3866 13.2674Z" fill="black"/>
</svg>
