<svg width="35" height="35" viewBox="0 0 35 35" fill="none" xmlns="http://www.w3.org/2000/svg">
<rect x="0.35791" y="0.35791" width="34" height="34" rx="3.57895" fill="#2D2D2D" fill-opacity="0.25"/>
<rect x="0.35791" y="0.35791" width="34" height="34" rx="3.57895" stroke="white" stroke-width="0.715789"/>
<path d="M7.21762 24.9632C6.85848 24.9632 6.55765 24.8415 6.31513 24.5982C6.07261 24.3548 5.95092 24.054 5.95008 23.6957C5.94923 23.3374 6.07092 23.0365 6.31513 22.7932C6.55934 22.5498 6.86017 22.4281 7.21762 22.4281H27.4983C27.8575 22.4281 28.1587 22.5498 28.4021 22.7932C28.6455 23.0365 28.7667 23.3374 28.7659 23.6957C28.765 24.054 28.6433 24.3552 28.4008 24.5994C28.1583 24.8436 27.8575 24.9649 27.4983 24.9632H7.21762ZM7.21762 18.6255C6.85848 18.6255 6.55765 18.5038 6.31513 18.2604C6.07261 18.0171 5.95092 17.7162 5.95008 17.3579C5.94923 16.9997 6.07092 16.6988 6.31513 16.4555C6.55934 16.2121 6.86017 16.0904 7.21762 16.0904H27.4983C27.8575 16.0904 28.1587 16.2121 28.4021 16.4555C28.6455 16.6988 28.7667 16.9997 28.7659 17.3579C28.765 17.7162 28.6433 18.0175 28.4008 18.2617C28.1583 18.5059 27.8575 18.6272 27.4983 18.6255H7.21762ZM7.21762 12.2878C6.85848 12.2878 6.55765 12.1661 6.31513 11.9227C6.07261 11.6794 5.95092 11.3785 5.95008 11.0202C5.94923 10.6619 6.07092 10.3611 6.31513 10.1177C6.55934 9.87437 6.86017 9.75269 7.21762 9.75269H27.4983C27.8575 9.75269 28.1587 9.87437 28.4021 10.1177C28.6455 10.3611 28.7667 10.6619 28.7659 11.0202C28.765 11.3785 28.6433 11.6798 28.4008 11.924C28.1583 12.1682 27.8575 12.2895 27.4983 12.2878H7.21762Z" fill="white"/>
</svg>
